<?xml version="1.0" encoding="UTF-8" standalone="no"?>
<!DOCTYPE svg PUBLIC "-//W3C//DTD SVG 1.1//EN" "http://www.w3.org/Graphics/SVG/1.1/DTD/svg11.dtd">
<svg width="100%" height="100%" viewBox="0 0 600 600" version="1.1" xmlns="http://www.w3.org/2000/svg" xmlns:xlink="http://www.w3.org/1999/xlink" xml:space="preserve" xmlns:serif="http://www.serif.com/" style="fill-rule:evenodd;clip-rule:evenodd;stroke-linejoin:round;stroke-miterlimit:2;">
    <rect x="40" y="40" width="520" height="520" style="fill:rgb(235,235,235);"/>
    <g transform="matrix(1,0,0,1,-41.5213,55.2727)">
        <g transform="matrix(96,0,0,96,104.017,274.665)">
            <path d="M0.536,-0.266C0.536,-0.187 0.513,-0.123 0.466,-0.074C0.419,-0.025 0.355,-0 0.275,-0C0.137,-0 0.052,-0.067 0.02,-0.201L0.118,-0.22C0.129,-0.177 0.147,-0.146 0.17,-0.127C0.193,-0.108 0.228,-0.099 0.275,-0.099C0.381,-0.099 0.434,-0.155 0.434,-0.268L0.434,-0.739L0.536,-0.739L0.536,-0.266Z" style="fill-rule:nonzero;"/>
        </g>
        <g transform="matrix(96,0,0,96,160.273,274.665)">
            <path d="M0.703,-0.375C0.703,-0.269 0.675,-0.181 0.619,-0.112C0.56,-0.037 0.479,-0 0.377,-0C0.275,-0 0.194,-0.037 0.134,-0.112C0.078,-0.181 0.05,-0.269 0.05,-0.375C0.05,-0.481 0.078,-0.569 0.134,-0.638C0.194,-0.712 0.275,-0.749 0.377,-0.749C0.479,-0.749 0.56,-0.712 0.619,-0.638C0.675,-0.569 0.703,-0.481 0.703,-0.375ZM0.597,-0.375C0.597,-0.459 0.577,-0.526 0.536,-0.576C0.495,-0.625 0.442,-0.65 0.377,-0.65C0.31,-0.65 0.257,-0.625 0.217,-0.576C0.177,-0.526 0.157,-0.459 0.157,-0.375C0.157,-0.291 0.177,-0.224 0.218,-0.174C0.259,-0.123 0.312,-0.098 0.377,-0.098C0.442,-0.098 0.495,-0.123 0.536,-0.174C0.577,-0.224 0.597,-0.291 0.597,-0.375Z" style="fill-rule:nonzero;"/>
        </g>
        <g transform="matrix(96,0,0,96,232.561,274.665)">
            <path d="M0.63,-0.214C0.63,-0.144 0.598,-0.09 0.534,-0.053C0.484,-0.023 0.426,-0.008 0.359,-0.008L0.05,-0.008L0.05,-0.737L0.365,-0.737C0.528,-0.737 0.61,-0.673 0.61,-0.544C0.61,-0.48 0.584,-0.429 0.531,-0.392C0.597,-0.355 0.63,-0.295 0.63,-0.214ZM0.505,-0.544C0.505,-0.609 0.458,-0.641 0.363,-0.641L0.151,-0.641L0.151,-0.435L0.343,-0.435C0.392,-0.435 0.431,-0.445 0.46,-0.466C0.49,-0.486 0.505,-0.512 0.505,-0.544ZM0.524,-0.214C0.524,-0.256 0.507,-0.288 0.473,-0.31C0.444,-0.33 0.405,-0.34 0.356,-0.34L0.151,-0.34L0.151,-0.104L0.356,-0.104C0.405,-0.104 0.446,-0.115 0.477,-0.136C0.508,-0.158 0.524,-0.184 0.524,-0.214Z" style="fill-rule:nonzero;"/>
        </g>
        <g transform="matrix(96,0,0,96,296.881,274.665)">
            <path d="M0.617,-0.214C0.617,-0.141 0.587,-0.085 0.526,-0.048C0.474,-0.016 0.407,-0 0.325,-0C0.176,-0 0.085,-0.068 0.05,-0.204L0.143,-0.242C0.168,-0.147 0.229,-0.099 0.325,-0.099C0.384,-0.099 0.43,-0.11 0.463,-0.131C0.494,-0.151 0.509,-0.179 0.509,-0.214C0.509,-0.245 0.481,-0.275 0.426,-0.302C0.4,-0.315 0.357,-0.332 0.298,-0.351C0.227,-0.374 0.175,-0.396 0.144,-0.418C0.095,-0.453 0.071,-0.498 0.071,-0.553C0.071,-0.62 0.098,-0.671 0.152,-0.705C0.197,-0.734 0.257,-0.749 0.33,-0.749C0.413,-0.749 0.478,-0.73 0.524,-0.693C0.557,-0.667 0.583,-0.627 0.603,-0.572L0.508,-0.533C0.494,-0.57 0.476,-0.598 0.455,-0.615C0.426,-0.638 0.384,-0.65 0.33,-0.65C0.276,-0.65 0.237,-0.642 0.213,-0.627C0.189,-0.612 0.177,-0.587 0.177,-0.553C0.177,-0.531 0.203,-0.509 0.254,-0.487C0.27,-0.48 0.306,-0.467 0.362,-0.45C0.441,-0.425 0.499,-0.399 0.535,-0.373C0.59,-0.332 0.617,-0.279 0.617,-0.214Z" style="fill-rule:nonzero;"/>
        </g>
        <g transform="matrix(96,0,0,96,104.017,370.665)">
            <path d="M0.592,-0.644L0.151,-0.644L0.151,-0.43L0.551,-0.43L0.551,-0.334L0.151,-0.334L0.151,-0.008L0.05,-0.008L0.05,-0.739L0.592,-0.739L0.592,-0.644Z" style="fill-rule:nonzero;"/>
        </g>
        <g transform="matrix(96,0,0,96,164.689,370.665)">
            <path d="M0.703,-0.375C0.703,-0.269 0.675,-0.181 0.619,-0.112C0.56,-0.037 0.479,-0 0.377,-0C0.275,-0 0.194,-0.037 0.134,-0.112C0.078,-0.181 0.05,-0.269 0.05,-0.375C0.05,-0.481 0.078,-0.569 0.134,-0.638C0.194,-0.712 0.275,-0.749 0.377,-0.749C0.479,-0.749 0.56,-0.712 0.619,-0.638C0.675,-0.569 0.703,-0.481 0.703,-0.375ZM0.597,-0.375C0.597,-0.459 0.577,-0.526 0.536,-0.576C0.495,-0.625 0.442,-0.65 0.377,-0.65C0.31,-0.65 0.257,-0.625 0.217,-0.576C0.177,-0.526 0.157,-0.459 0.157,-0.375C0.157,-0.291 0.177,-0.224 0.218,-0.174C0.259,-0.123 0.312,-0.098 0.377,-0.098C0.442,-0.098 0.495,-0.123 0.536,-0.174C0.577,-0.224 0.597,-0.291 0.597,-0.375Z" style="fill-rule:nonzero;"/>
        </g>
        <g transform="matrix(96,0,0,96,236.977,370.665)">
            <path d="M0.639,-0.008L0.523,-0.008L0.354,-0.324L0.152,-0.324L0.152,-0.008L0.05,-0.008L0.05,-0.739L0.362,-0.739C0.437,-0.739 0.498,-0.721 0.545,-0.685C0.592,-0.649 0.615,-0.598 0.615,-0.532C0.615,-0.437 0.564,-0.373 0.463,-0.34L0.639,-0.008ZM0.511,-0.532C0.511,-0.607 0.46,-0.644 0.359,-0.644L0.152,-0.644L0.152,-0.42L0.359,-0.42C0.411,-0.42 0.45,-0.431 0.477,-0.454C0.5,-0.474 0.511,-0.5 0.511,-0.532Z" style="fill-rule:nonzero;"/>
        </g>
        <g transform="matrix(96,0,0,96,104.017,466.665)">
            <path d="M0.684,-0.562L0.59,-0.525C0.554,-0.608 0.488,-0.65 0.392,-0.65C0.328,-0.65 0.274,-0.627 0.23,-0.581C0.18,-0.528 0.155,-0.456 0.155,-0.365C0.155,-0.274 0.179,-0.204 0.227,-0.157C0.266,-0.118 0.315,-0.099 0.374,-0.099C0.472,-0.099 0.543,-0.147 0.586,-0.244L0.673,-0.205C0.643,-0.138 0.606,-0.088 0.563,-0.055C0.513,-0.018 0.45,-0 0.374,-0C0.279,-0 0.203,-0.03 0.144,-0.091C0.081,-0.157 0.05,-0.248 0.05,-0.365C0.05,-0.474 0.083,-0.566 0.148,-0.64C0.213,-0.713 0.295,-0.75 0.392,-0.75C0.533,-0.75 0.63,-0.687 0.684,-0.562Z" style="fill-rule:nonzero;"/>
        </g>
        <g transform="matrix(96,0,0,96,174.481,466.665)">
            <path d="M0.639,-0.008L0.523,-0.008L0.354,-0.324L0.152,-0.324L0.152,-0.008L0.05,-0.008L0.05,-0.739L0.362,-0.739C0.437,-0.739 0.498,-0.721 0.545,-0.685C0.592,-0.649 0.615,-0.598 0.615,-0.532C0.615,-0.437 0.564,-0.373 0.463,-0.34L0.639,-0.008ZM0.511,-0.532C0.511,-0.607 0.46,-0.644 0.359,-0.644L0.152,-0.644L0.152,-0.42L0.359,-0.42C0.411,-0.42 0.45,-0.431 0.477,-0.454C0.5,-0.474 0.511,-0.5 0.511,-0.532Z" style="fill-rule:nonzero;"/>
        </g>
        <g transform="matrix(96,0,0,96,237.745,466.665)">
            <path d="M0.698,-0.739L0.409,-0.346L0.409,-0.008L0.305,-0.008L0.305,-0.345L0.015,-0.739L0.14,-0.739L0.357,-0.445L0.576,-0.739L0.698,-0.739Z" style="fill-rule:nonzero;"/>
        </g>
        <g transform="matrix(96,0,0,96,306.193,466.665)">
            <path d="M0.625,-0.532C0.625,-0.467 0.601,-0.415 0.552,-0.378C0.506,-0.342 0.446,-0.324 0.371,-0.324L0.153,-0.324L0.153,-0.008L0.05,-0.008L0.05,-0.739L0.371,-0.739C0.447,-0.739 0.508,-0.722 0.553,-0.688C0.601,-0.651 0.625,-0.599 0.625,-0.532ZM0.519,-0.532C0.519,-0.607 0.469,-0.644 0.369,-0.644L0.153,-0.644L0.153,-0.42L0.369,-0.42C0.469,-0.42 0.519,-0.457 0.519,-0.532Z" style="fill-rule:nonzero;"/>
        </g>
        <g transform="matrix(96,0,0,96,370.033,466.665)">
            <path d="M0.643,-0.644L0.38,-0.644L0.38,-0.008L0.278,-0.008L0.278,-0.644L0.015,-0.644L0.015,-0.739L0.643,-0.739L0.643,-0.644Z" style="fill-rule:nonzero;"/>
        </g>
        <g transform="matrix(96,0,0,96,433.201,466.665)">
            <path d="M0.703,-0.375C0.703,-0.269 0.675,-0.181 0.619,-0.112C0.56,-0.037 0.479,-0 0.377,-0C0.275,-0 0.194,-0.037 0.134,-0.112C0.078,-0.181 0.05,-0.269 0.05,-0.375C0.05,-0.481 0.078,-0.569 0.134,-0.638C0.194,-0.712 0.275,-0.749 0.377,-0.749C0.479,-0.749 0.56,-0.712 0.619,-0.638C0.675,-0.569 0.703,-0.481 0.703,-0.375ZM0.597,-0.375C0.597,-0.459 0.577,-0.526 0.536,-0.576C0.495,-0.625 0.442,-0.65 0.377,-0.65C0.31,-0.65 0.257,-0.625 0.217,-0.576C0.177,-0.526 0.157,-0.459 0.157,-0.375C0.157,-0.291 0.177,-0.224 0.218,-0.174C0.259,-0.123 0.312,-0.098 0.377,-0.098C0.442,-0.098 0.495,-0.123 0.536,-0.174C0.577,-0.224 0.597,-0.291 0.597,-0.375Z" style="fill-rule:nonzero;"/>
        </g>
    </g>
</svg>
